<mxfile host="app.diagrams.net" modified="2021-05-17T08:26:07.803Z" agent="5.0 (Windows NT 10.0; Win64; x64) AppleWebKit/537.36 (KHTML, like Gecko) Chrome/90.0.4430.93 Safari/537.36 Edg/90.0.818.56" etag="zljekPOf7b4BgvGPHMtj" version="14.6.13" type="github">
  <diagram id="LRrfL3bHEKiN9lbMDp75" name="Page-1">
    <mxGraphModel dx="1038" dy="580" grid="0" gridSize="10" guides="1" tooltips="1" connect="1" arrows="1" fold="1" page="1" pageScale="1" pageWidth="827" pageHeight="1169" math="0" shadow="0">
      <root>
        <mxCell id="0" />
        <mxCell id="1" parent="0" />
        <mxCell id="VVSR8h6yY79pffCjmbzh-1" value="" style="curved=1;endArrow=classic;html=1;" parent="1" edge="1">
          <mxGeometry width="50" height="50" relative="1" as="geometry">
            <mxPoint x="69" y="120" as="sourcePoint" />
            <mxPoint x="129" y="130" as="targetPoint" />
            <Array as="points">
              <mxPoint x="89" y="130" />
              <mxPoint x="109" y="110" />
            </Array>
          </mxGeometry>
        </mxCell>
        <mxCell id="VVSR8h6yY79pffCjmbzh-4" value="" style="curved=1;endArrow=classic;html=1;" parent="1" edge="1">
          <mxGeometry width="50" height="50" relative="1" as="geometry">
            <mxPoint x="69" y="140" as="sourcePoint" />
            <mxPoint x="129" y="150" as="targetPoint" />
            <Array as="points">
              <mxPoint x="89" y="150" />
              <mxPoint x="109" y="130" />
            </Array>
          </mxGeometry>
        </mxCell>
        <mxCell id="VVSR8h6yY79pffCjmbzh-5" value="" style="curved=1;endArrow=classic;html=1;" parent="1" edge="1">
          <mxGeometry width="50" height="50" relative="1" as="geometry">
            <mxPoint x="69" y="190" as="sourcePoint" />
            <mxPoint x="129" y="200" as="targetPoint" />
            <Array as="points">
              <mxPoint x="89" y="200" />
              <mxPoint x="109" y="180" />
            </Array>
          </mxGeometry>
        </mxCell>
        <mxCell id="VVSR8h6yY79pffCjmbzh-6" value="" style="endArrow=none;dashed=1;html=1;dashPattern=1 3;strokeWidth=2;" parent="1" edge="1">
          <mxGeometry width="50" height="50" relative="1" as="geometry">
            <mxPoint x="69" y="169.5" as="sourcePoint" />
            <mxPoint x="129" y="169.5" as="targetPoint" />
          </mxGeometry>
        </mxCell>
        <mxCell id="VVSR8h6yY79pffCjmbzh-7" value="" style="curved=1;endArrow=classic;html=1;" parent="1" edge="1">
          <mxGeometry width="50" height="50" relative="1" as="geometry">
            <mxPoint x="69" y="210" as="sourcePoint" />
            <mxPoint x="129" y="220" as="targetPoint" />
            <Array as="points">
              <mxPoint x="89" y="220" />
              <mxPoint x="109" y="200" />
            </Array>
          </mxGeometry>
        </mxCell>
        <mxCell id="VVSR8h6yY79pffCjmbzh-8" value="合并内存请求" style="rounded=1;whiteSpace=wrap;html=1;" parent="1" vertex="1">
          <mxGeometry x="179" y="150" width="80" height="40" as="geometry" />
        </mxCell>
        <mxCell id="VVSR8h6yY79pffCjmbzh-9" value="" style="endArrow=classic;html=1;" parent="1" edge="1">
          <mxGeometry width="50" height="50" relative="1" as="geometry">
            <mxPoint x="139" y="169.5" as="sourcePoint" />
            <mxPoint x="169" y="169.5" as="targetPoint" />
          </mxGeometry>
        </mxCell>
        <mxCell id="VVSR8h6yY79pffCjmbzh-10" value="内存请求" style="text;html=1;align=center;verticalAlign=middle;resizable=0;points=[];autosize=1;strokeColor=none;" parent="1" vertex="1">
          <mxGeometry x="69" y="90" width="60" height="20" as="geometry" />
        </mxCell>
        <mxCell id="VVSR8h6yY79pffCjmbzh-15" style="edgeStyle=orthogonalEdgeStyle;rounded=0;orthogonalLoop=1;jettySize=auto;html=1;exitX=1;exitY=0.5;exitDx=0;exitDy=0;entryX=0;entryY=0.5;entryDx=0;entryDy=0;" parent="1" source="VVSR8h6yY79pffCjmbzh-11" target="VVSR8h6yY79pffCjmbzh-13" edge="1">
          <mxGeometry relative="1" as="geometry" />
        </mxCell>
        <mxCell id="VVSR8h6yY79pffCjmbzh-19" style="edgeStyle=orthogonalEdgeStyle;rounded=0;orthogonalLoop=1;jettySize=auto;html=1;exitX=0.5;exitY=0;exitDx=0;exitDy=0;" parent="1" source="VVSR8h6yY79pffCjmbzh-11" edge="1">
          <mxGeometry relative="1" as="geometry">
            <mxPoint x="169" y="110" as="targetPoint" />
            <Array as="points">
              <mxPoint x="309" y="150" />
              <mxPoint x="309" y="110" />
            </Array>
          </mxGeometry>
        </mxCell>
        <mxCell id="VVSR8h6yY79pffCjmbzh-38" style="edgeStyle=orthogonalEdgeStyle;rounded=0;orthogonalLoop=1;jettySize=auto;html=1;exitX=0.5;exitY=1;exitDx=0;exitDy=0;fillColor=#f8cecc;strokeColor=#b85450;" parent="1" source="VVSR8h6yY79pffCjmbzh-11" edge="1">
          <mxGeometry relative="1" as="geometry">
            <mxPoint x="529" y="190" as="targetPoint" />
            <Array as="points">
              <mxPoint x="324" y="230" />
              <mxPoint x="529" y="230" />
            </Array>
          </mxGeometry>
        </mxCell>
        <mxCell id="VVSR8h6yY79pffCjmbzh-11" value="L1D-cache" style="rounded=0;whiteSpace=wrap;html=1;" parent="1" vertex="1">
          <mxGeometry x="289" y="150" width="70" height="40" as="geometry" />
        </mxCell>
        <mxCell id="VVSR8h6yY79pffCjmbzh-12" value="" style="endArrow=classic;html=1;" parent="1" edge="1">
          <mxGeometry width="50" height="50" relative="1" as="geometry">
            <mxPoint x="259" y="169" as="sourcePoint" />
            <mxPoint x="289" y="169" as="targetPoint" />
          </mxGeometry>
        </mxCell>
        <mxCell id="VVSR8h6yY79pffCjmbzh-23" style="edgeStyle=orthogonalEdgeStyle;rounded=0;orthogonalLoop=1;jettySize=auto;html=1;exitX=1;exitY=0.5;exitDx=0;exitDy=0;entryX=0;entryY=0.5;entryDx=0;entryDy=0;" parent="1" source="VVSR8h6yY79pffCjmbzh-13" target="VVSR8h6yY79pffCjmbzh-22" edge="1">
          <mxGeometry relative="1" as="geometry" />
        </mxCell>
        <mxCell id="VVSR8h6yY79pffCjmbzh-13" value="MSHR" style="rounded=0;whiteSpace=wrap;html=1;" parent="1" vertex="1">
          <mxGeometry x="419" y="140" width="40" height="60" as="geometry" />
        </mxCell>
        <mxCell id="VVSR8h6yY79pffCjmbzh-16" value="miss" style="text;html=1;align=center;verticalAlign=middle;resizable=0;points=[];autosize=1;strokeColor=none;" parent="1" vertex="1">
          <mxGeometry x="369" y="150" width="40" height="20" as="geometry" />
        </mxCell>
        <mxCell id="VVSR8h6yY79pffCjmbzh-24" style="edgeStyle=orthogonalEdgeStyle;rounded=0;orthogonalLoop=1;jettySize=auto;html=1;exitX=0.5;exitY=0;exitDx=0;exitDy=0;entryX=0.75;entryY=0;entryDx=0;entryDy=0;" parent="1" source="VVSR8h6yY79pffCjmbzh-22" target="VVSR8h6yY79pffCjmbzh-11" edge="1">
          <mxGeometry relative="1" as="geometry">
            <mxPoint x="339" y="70" as="targetPoint" />
            <Array as="points">
              <mxPoint x="529" y="150" />
              <mxPoint x="529" y="110" />
              <mxPoint x="342" y="110" />
            </Array>
          </mxGeometry>
        </mxCell>
        <mxCell id="VVSR8h6yY79pffCjmbzh-28" style="edgeStyle=orthogonalEdgeStyle;rounded=0;orthogonalLoop=1;jettySize=auto;html=1;exitX=1;exitY=0.5;exitDx=0;exitDy=0;entryX=0;entryY=0.5;entryDx=0;entryDy=0;" parent="1" source="VVSR8h6yY79pffCjmbzh-22" target="VVSR8h6yY79pffCjmbzh-27" edge="1">
          <mxGeometry relative="1" as="geometry">
            <Array as="points">
              <mxPoint x="589" y="170" />
              <mxPoint x="589" y="170" />
            </Array>
          </mxGeometry>
        </mxCell>
        <mxCell id="VVSR8h6yY79pffCjmbzh-40" style="edgeStyle=orthogonalEdgeStyle;rounded=0;orthogonalLoop=1;jettySize=auto;html=1;exitX=0.75;exitY=1;exitDx=0;exitDy=0;fillColor=#f8cecc;strokeColor=#b85450;" parent="1" source="VVSR8h6yY79pffCjmbzh-22" edge="1">
          <mxGeometry relative="1" as="geometry">
            <mxPoint x="169" y="270" as="targetPoint" />
            <Array as="points">
              <mxPoint x="562" y="270" />
            </Array>
          </mxGeometry>
        </mxCell>
        <mxCell id="VVSR8h6yY79pffCjmbzh-22" value="L2-cache" style="rounded=0;whiteSpace=wrap;html=1;" parent="1" vertex="1">
          <mxGeometry x="509" y="150" width="70" height="40" as="geometry" />
        </mxCell>
        <mxCell id="VVSR8h6yY79pffCjmbzh-34" style="edgeStyle=orthogonalEdgeStyle;rounded=0;orthogonalLoop=1;jettySize=auto;html=1;exitX=0.5;exitY=0;exitDx=0;exitDy=0;entryX=0.663;entryY=-0.045;entryDx=0;entryDy=0;entryPerimeter=0;" parent="1" source="VVSR8h6yY79pffCjmbzh-27" target="VVSR8h6yY79pffCjmbzh-22" edge="1">
          <mxGeometry relative="1" as="geometry">
            <mxPoint x="589" y="70" as="targetPoint" />
            <Array as="points">
              <mxPoint x="674" y="110" />
              <mxPoint x="555" y="110" />
            </Array>
          </mxGeometry>
        </mxCell>
        <mxCell id="VVSR8h6yY79pffCjmbzh-27" value="DRAM" style="rounded=0;whiteSpace=wrap;html=1;" parent="1" vertex="1">
          <mxGeometry x="639" y="150" width="70" height="40" as="geometry" />
        </mxCell>
        <mxCell id="VVSR8h6yY79pffCjmbzh-29" value="miss" style="text;html=1;align=center;verticalAlign=middle;resizable=0;points=[];autosize=1;strokeColor=none;" parent="1" vertex="1">
          <mxGeometry x="589" y="150" width="40" height="20" as="geometry" />
        </mxCell>
        <mxCell id="VVSR8h6yY79pffCjmbzh-30" value="hit" style="text;html=1;align=center;verticalAlign=middle;resizable=0;points=[];autosize=1;strokeColor=none;" parent="1" vertex="1">
          <mxGeometry x="279" y="120" width="30" height="20" as="geometry" />
        </mxCell>
        <mxCell id="VVSR8h6yY79pffCjmbzh-33" value="hit" style="text;html=1;align=center;verticalAlign=middle;resizable=0;points=[];autosize=1;strokeColor=none;" parent="1" vertex="1">
          <mxGeometry x="499" y="120" width="30" height="20" as="geometry" />
        </mxCell>
        <mxCell id="VVSR8h6yY79pffCjmbzh-35" value="返回未命中的数据" style="text;html=1;align=center;verticalAlign=middle;resizable=0;points=[];autosize=1;strokeColor=none;" parent="1" vertex="1">
          <mxGeometry x="559" y="90" width="110" height="20" as="geometry" />
        </mxCell>
        <mxCell id="VVSR8h6yY79pffCjmbzh-36" value="返回未命中的数据" style="text;html=1;align=center;verticalAlign=middle;resizable=0;points=[];autosize=1;strokeColor=none;" parent="1" vertex="1">
          <mxGeometry x="374" y="90" width="110" height="20" as="geometry" />
        </mxCell>
        <mxCell id="VVSR8h6yY79pffCjmbzh-37" value="返回请求数据" style="text;html=1;align=center;verticalAlign=middle;resizable=0;points=[];autosize=1;strokeColor=none;" parent="1" vertex="1">
          <mxGeometry x="194" y="90" width="90" height="20" as="geometry" />
        </mxCell>
        <mxCell id="VVSR8h6yY79pffCjmbzh-39" value="一级缓存旁路" style="text;html=1;align=center;verticalAlign=middle;resizable=0;points=[];autosize=1;strokeColor=none;" parent="1" vertex="1">
          <mxGeometry x="384" y="231" width="90" height="20" as="geometry" />
        </mxCell>
        <mxCell id="VVSR8h6yY79pffCjmbzh-41" value="绕过一级缓存，返回请求数据" style="text;html=1;align=center;verticalAlign=middle;resizable=0;points=[];autosize=1;strokeColor=none;" parent="1" vertex="1">
          <mxGeometry x="283" y="270" width="170" height="20" as="geometry" />
        </mxCell>
        <mxCell id="VVSR8h6yY79pffCjmbzh-42" value="" style="endArrow=none;dashed=1;html=1;dashPattern=1 3;strokeWidth=2;" parent="1" edge="1">
          <mxGeometry width="50" height="50" relative="1" as="geometry">
            <mxPoint x="719" y="169" as="sourcePoint" />
            <mxPoint x="759" y="169" as="targetPoint" />
          </mxGeometry>
        </mxCell>
        <mxCell id="VVSR8h6yY79pffCjmbzh-43" value="tag" style="rounded=0;whiteSpace=wrap;html=1;" parent="1" vertex="1">
          <mxGeometry x="240.5" y="360" width="40" height="30" as="geometry" />
        </mxCell>
        <mxCell id="VVSR8h6yY79pffCjmbzh-44" value="status" style="rounded=0;whiteSpace=wrap;html=1;" parent="1" vertex="1">
          <mxGeometry x="280.5" y="360" width="40" height="30" as="geometry" />
        </mxCell>
        <mxCell id="VVSR8h6yY79pffCjmbzh-45" value="rc" style="rounded=0;whiteSpace=wrap;html=1;" parent="1" vertex="1">
          <mxGeometry x="319.5" y="360" width="40" height="30" as="geometry" />
        </mxCell>
        <mxCell id="VVSR8h6yY79pffCjmbzh-82" style="edgeStyle=orthogonalEdgeStyle;rounded=0;orthogonalLoop=1;jettySize=auto;html=1;exitX=1;exitY=0.5;exitDx=0;exitDy=0;" parent="1" source="VVSR8h6yY79pffCjmbzh-47" target="VVSR8h6yY79pffCjmbzh-69" edge="1">
          <mxGeometry relative="1" as="geometry" />
        </mxCell>
        <mxCell id="VVSR8h6yY79pffCjmbzh-47" value="pos" style="rounded=0;whiteSpace=wrap;html=1;" parent="1" vertex="1">
          <mxGeometry x="359.5" y="360" width="40" height="30" as="geometry" />
        </mxCell>
        <mxCell id="VVSR8h6yY79pffCjmbzh-48" value="" style="rounded=0;whiteSpace=wrap;html=1;fillColor=#bac8d3;strokeColor=#23445d;" parent="1" vertex="1">
          <mxGeometry x="120" y="440" width="80" height="30" as="geometry" />
        </mxCell>
        <mxCell id="VVSR8h6yY79pffCjmbzh-49" value="" style="rounded=0;whiteSpace=wrap;html=1;fillColor=#bac8d3;strokeColor=#23445d;" parent="1" vertex="1">
          <mxGeometry x="199" y="440" width="80" height="40" as="geometry" />
        </mxCell>
        <mxCell id="VVSR8h6yY79pffCjmbzh-50" value="tag block" style="rounded=0;whiteSpace=wrap;html=1;fillColor=#fad9d5;strokeColor=#ae4132;" parent="1" vertex="1">
          <mxGeometry x="280" y="440" width="80" height="30" as="geometry" />
        </mxCell>
        <mxCell id="VVSR8h6yY79pffCjmbzh-51" value="" style="rounded=0;whiteSpace=wrap;html=1;fillColor=#bac8d3;strokeColor=#23445d;" parent="1" vertex="1">
          <mxGeometry x="360" y="440" width="80" height="40" as="geometry" />
        </mxCell>
        <mxCell id="VVSR8h6yY79pffCjmbzh-53" value="" style="rounded=0;whiteSpace=wrap;html=1;fillColor=#bac8d3;strokeColor=#23445d;" parent="1" vertex="1">
          <mxGeometry x="120" y="470" width="80" height="30" as="geometry" />
        </mxCell>
        <mxCell id="VVSR8h6yY79pffCjmbzh-54" value="" style="rounded=0;whiteSpace=wrap;html=1;fillColor=#bac8d3;strokeColor=#23445d;" parent="1" vertex="1">
          <mxGeometry x="199" y="470" width="80" height="30" as="geometry" />
        </mxCell>
        <mxCell id="VVSR8h6yY79pffCjmbzh-55" value="" style="rounded=0;whiteSpace=wrap;html=1;fillColor=#bac8d3;strokeColor=#23445d;" parent="1" vertex="1">
          <mxGeometry x="280" y="470" width="80" height="30" as="geometry" />
        </mxCell>
        <mxCell id="VVSR8h6yY79pffCjmbzh-99" style="edgeStyle=none;rounded=0;orthogonalLoop=1;jettySize=auto;html=1;exitX=1;exitY=0.5;exitDx=0;exitDy=0;entryX=0;entryY=0.5;entryDx=0;entryDy=0;" parent="1" source="VVSR8h6yY79pffCjmbzh-56" target="VVSR8h6yY79pffCjmbzh-77" edge="1">
          <mxGeometry relative="1" as="geometry" />
        </mxCell>
        <mxCell id="VVSR8h6yY79pffCjmbzh-56" value="" style="rounded=0;whiteSpace=wrap;html=1;fillColor=#bac8d3;strokeColor=#23445d;" parent="1" vertex="1">
          <mxGeometry x="360" y="470" width="80" height="30" as="geometry" />
        </mxCell>
        <mxCell id="VVSR8h6yY79pffCjmbzh-57" value="" style="rounded=0;whiteSpace=wrap;html=1;" parent="1" vertex="1">
          <mxGeometry x="120" y="500" width="80" height="30" as="geometry" />
        </mxCell>
        <mxCell id="VVSR8h6yY79pffCjmbzh-58" value="" style="rounded=0;whiteSpace=wrap;html=1;fillColor=#ffff88;strokeColor=#36393d;" parent="1" vertex="1">
          <mxGeometry x="199" y="500" width="80" height="30" as="geometry" />
        </mxCell>
        <mxCell id="VVSR8h6yY79pffCjmbzh-59" value="" style="rounded=0;whiteSpace=wrap;html=1;" parent="1" vertex="1">
          <mxGeometry x="280" y="500" width="80" height="30" as="geometry" />
        </mxCell>
        <mxCell id="VVSR8h6yY79pffCjmbzh-60" value="" style="rounded=0;whiteSpace=wrap;html=1;" parent="1" vertex="1">
          <mxGeometry x="360" y="500" width="80" height="30" as="geometry" />
        </mxCell>
        <mxCell id="VVSR8h6yY79pffCjmbzh-68" value="&lt;font style=&quot;font-size: 18px&quot;&gt;tag array&lt;/font&gt;" style="text;html=1;align=center;verticalAlign=middle;resizable=0;points=[];autosize=1;strokeColor=none;" parent="1" vertex="1">
          <mxGeometry x="65" y="400" width="90" height="20" as="geometry" />
        </mxCell>
        <mxCell id="VVSR8h6yY79pffCjmbzh-117" style="edgeStyle=none;rounded=0;orthogonalLoop=1;jettySize=auto;html=1;exitX=0;exitY=0.5;exitDx=0;exitDy=0;" parent="1" source="VVSR8h6yY79pffCjmbzh-69" edge="1">
          <mxGeometry relative="1" as="geometry">
            <mxPoint x="440" y="455" as="targetPoint" />
          </mxGeometry>
        </mxCell>
        <mxCell id="VVSR8h6yY79pffCjmbzh-69" value="data block" style="rounded=0;whiteSpace=wrap;html=1;fillColor=#ffe6cc;strokeColor=#d79b00;" parent="1" vertex="1">
          <mxGeometry x="484" y="440" width="80" height="30" as="geometry" />
        </mxCell>
        <mxCell id="VVSR8h6yY79pffCjmbzh-70" value="" style="rounded=0;whiteSpace=wrap;html=1;" parent="1" vertex="1">
          <mxGeometry x="563" y="440" width="80" height="30" as="geometry" />
        </mxCell>
        <mxCell id="VVSR8h6yY79pffCjmbzh-71" value="" style="rounded=0;whiteSpace=wrap;html=1;" parent="1" vertex="1">
          <mxGeometry x="644" y="440" width="80" height="30" as="geometry" />
        </mxCell>
        <mxCell id="VVSR8h6yY79pffCjmbzh-73" value="" style="rounded=0;whiteSpace=wrap;html=1;" parent="1" vertex="1">
          <mxGeometry x="484" y="470" width="80" height="30" as="geometry" />
        </mxCell>
        <mxCell id="VVSR8h6yY79pffCjmbzh-74" value="" style="rounded=0;whiteSpace=wrap;html=1;" parent="1" vertex="1">
          <mxGeometry x="563" y="470" width="80" height="30" as="geometry" />
        </mxCell>
        <mxCell id="VVSR8h6yY79pffCjmbzh-75" value="" style="rounded=0;whiteSpace=wrap;html=1;" parent="1" vertex="1">
          <mxGeometry x="644" y="470" width="80" height="30" as="geometry" />
        </mxCell>
        <mxCell id="VVSR8h6yY79pffCjmbzh-77" value="" style="rounded=0;whiteSpace=wrap;html=1;fillColor=#ffff88;strokeColor=#36393d;" parent="1" vertex="1">
          <mxGeometry x="484" y="500" width="80" height="30" as="geometry" />
        </mxCell>
        <mxCell id="VVSR8h6yY79pffCjmbzh-78" value="" style="rounded=0;whiteSpace=wrap;html=1;" parent="1" vertex="1">
          <mxGeometry x="563" y="500" width="80" height="30" as="geometry" />
        </mxCell>
        <mxCell id="VVSR8h6yY79pffCjmbzh-79" value="" style="rounded=0;whiteSpace=wrap;html=1;" parent="1" vertex="1">
          <mxGeometry x="644" y="500" width="80" height="30" as="geometry" />
        </mxCell>
        <mxCell id="VVSR8h6yY79pffCjmbzh-81" value="&lt;font style=&quot;font-size: 18px&quot;&gt;data array&lt;/font&gt;" style="text;html=1;align=center;verticalAlign=middle;resizable=0;points=[];autosize=1;strokeColor=none;" parent="1" vertex="1">
          <mxGeometry x="629" y="400" width="100" height="20" as="geometry" />
        </mxCell>
        <mxCell id="VVSR8h6yY79pffCjmbzh-83" value="" style="endArrow=none;html=1;entryX=0;entryY=1;entryDx=0;entryDy=0;exitX=0;exitY=0;exitDx=0;exitDy=0;" parent="1" source="VVSR8h6yY79pffCjmbzh-50" target="VVSR8h6yY79pffCjmbzh-43" edge="1">
          <mxGeometry width="50" height="50" relative="1" as="geometry">
            <mxPoint x="360" y="480" as="sourcePoint" />
            <mxPoint x="410" y="430" as="targetPoint" />
          </mxGeometry>
        </mxCell>
        <mxCell id="VVSR8h6yY79pffCjmbzh-84" value="" style="endArrow=none;html=1;entryX=1;entryY=1;entryDx=0;entryDy=0;exitX=0;exitY=0;exitDx=0;exitDy=0;" parent="1" source="VVSR8h6yY79pffCjmbzh-51" target="VVSR8h6yY79pffCjmbzh-47" edge="1">
          <mxGeometry width="50" height="50" relative="1" as="geometry">
            <mxPoint x="360" y="480" as="sourcePoint" />
            <mxPoint x="410" y="430" as="targetPoint" />
          </mxGeometry>
        </mxCell>
        <mxCell id="VVSR8h6yY79pffCjmbzh-87" style="edgeStyle=none;rounded=0;orthogonalLoop=1;jettySize=auto;html=1;exitX=0.5;exitY=0;exitDx=0;exitDy=0;" parent="1" source="VVSR8h6yY79pffCjmbzh-86" target="VVSR8h6yY79pffCjmbzh-77" edge="1">
          <mxGeometry relative="1" as="geometry" />
        </mxCell>
        <mxCell id="VVSR8h6yY79pffCjmbzh-86" value="LRU替换算法" style="rounded=1;whiteSpace=wrap;html=1;" parent="1" vertex="1">
          <mxGeometry x="479" y="580" width="90" height="40" as="geometry" />
        </mxCell>
        <mxCell id="VVSR8h6yY79pffCjmbzh-88" value="&lt;font style=&quot;font-size: 14px&quot;&gt;set 0&lt;/font&gt;" style="text;html=1;align=center;verticalAlign=middle;resizable=0;points=[];autosize=1;strokeColor=none;" parent="1" vertex="1">
          <mxGeometry x="65" y="445" width="50" height="20" as="geometry" />
        </mxCell>
        <mxCell id="VVSR8h6yY79pffCjmbzh-89" value="&lt;font style=&quot;font-size: 14px&quot;&gt;set 1&lt;/font&gt;" style="text;html=1;align=center;verticalAlign=middle;resizable=0;points=[];autosize=1;strokeColor=none;" parent="1" vertex="1">
          <mxGeometry x="65" y="475" width="50" height="20" as="geometry" />
        </mxCell>
        <mxCell id="VVSR8h6yY79pffCjmbzh-90" value="&lt;font style=&quot;font-size: 14px&quot;&gt;set 2&lt;/font&gt;" style="text;html=1;align=center;verticalAlign=middle;resizable=0;points=[];autosize=1;strokeColor=none;" parent="1" vertex="1">
          <mxGeometry x="65" y="505" width="50" height="20" as="geometry" />
        </mxCell>
        <mxCell id="VVSR8h6yY79pffCjmbzh-93" style="edgeStyle=none;rounded=0;orthogonalLoop=1;jettySize=auto;html=1;exitX=0.5;exitY=0;exitDx=0;exitDy=0;" parent="1" source="VVSR8h6yY79pffCjmbzh-79" target="VVSR8h6yY79pffCjmbzh-79" edge="1">
          <mxGeometry relative="1" as="geometry" />
        </mxCell>
        <mxCell id="VVSR8h6yY79pffCjmbzh-98" style="edgeStyle=none;rounded=0;orthogonalLoop=1;jettySize=auto;html=1;exitX=0.5;exitY=0;exitDx=0;exitDy=0;entryX=0.5;entryY=1;entryDx=0;entryDy=0;" parent="1" source="VVSR8h6yY79pffCjmbzh-97" target="VVSR8h6yY79pffCjmbzh-58" edge="1">
          <mxGeometry relative="1" as="geometry" />
        </mxCell>
        <mxCell id="VVSR8h6yY79pffCjmbzh-97" value="最少rc替换算法" style="rounded=1;whiteSpace=wrap;html=1;" parent="1" vertex="1">
          <mxGeometry x="194" y="580" width="90" height="40" as="geometry" />
        </mxCell>
        <mxCell id="VVSR8h6yY79pffCjmbzh-101" value="" style="rounded=0;whiteSpace=wrap;html=1;fillColor=#bac8d3;strokeColor=#23445d;" parent="1" vertex="1">
          <mxGeometry x="259" y="650" width="80" height="30" as="geometry" />
        </mxCell>
        <mxCell id="VVSR8h6yY79pffCjmbzh-102" value="同组tag块" style="text;html=1;align=center;verticalAlign=middle;resizable=0;points=[];autosize=1;strokeColor=none;" parent="1" vertex="1">
          <mxGeometry x="344.5" y="655" width="70" height="20" as="geometry" />
        </mxCell>
        <mxCell id="VVSR8h6yY79pffCjmbzh-106" value="" style="rounded=0;whiteSpace=wrap;html=1;fillColor=#ffff88;strokeColor=#36393d;" parent="1" vertex="1">
          <mxGeometry x="460" y="650" width="80" height="30" as="geometry" />
        </mxCell>
        <mxCell id="VVSR8h6yY79pffCjmbzh-107" value="victim块" style="text;html=1;align=center;verticalAlign=middle;resizable=0;points=[];autosize=1;strokeColor=none;" parent="1" vertex="1">
          <mxGeometry x="550" y="655" width="60" height="20" as="geometry" />
        </mxCell>
        <mxCell id="VVSR8h6yY79pffCjmbzh-109" value="" style="endArrow=classic;html=1;exitX=0;exitY=0.75;exitDx=0;exitDy=0;entryX=0.5;entryY=0;entryDx=0;entryDy=0;" parent="1" source="VVSR8h6yY79pffCjmbzh-77" target="VVSR8h6yY79pffCjmbzh-59" edge="1">
          <mxGeometry width="50" height="50" relative="1" as="geometry">
            <mxPoint x="410" y="530" as="sourcePoint" />
            <mxPoint x="440" y="490" as="targetPoint" />
            <Array as="points">
              <mxPoint x="470" y="580" />
              <mxPoint x="410" y="580" />
              <mxPoint x="350" y="580" />
            </Array>
          </mxGeometry>
        </mxCell>
        <mxCell id="VVSR8h6yY79pffCjmbzh-111" value="&lt;font style=&quot;font-size: 12px&quot;&gt;替换后同组rc减1&lt;/font&gt;" style="text;html=1;align=center;verticalAlign=middle;resizable=0;points=[];autosize=1;strokeColor=none;" parent="1" vertex="1">
          <mxGeometry x="360" y="560" width="100" height="20" as="geometry" />
        </mxCell>
        <mxCell id="VVSR8h6yY79pffCjmbzh-112" value="指向对应数据块" style="text;html=1;align=center;verticalAlign=middle;resizable=0;points=[];autosize=1;strokeColor=none;" parent="1" vertex="1">
          <mxGeometry x="414" y="350" width="100" height="20" as="geometry" />
        </mxCell>
        <mxCell id="VVSR8h6yY79pffCjmbzh-113" value="分配后同组rc减1" style="text;html=1;align=center;verticalAlign=middle;resizable=0;points=[];autosize=1;strokeColor=none;" parent="1" vertex="1">
          <mxGeometry x="414" y="410" width="100" height="20" as="geometry" />
        </mxCell>
      </root>
    </mxGraphModel>
  </diagram>
</mxfile>
